<svg width="146" height="26" viewBox="0 0 146 26" fill="none" xmlns="http://www.w3.org/2000/svg">
<path d="M23.8956 7.52385C23.7662 7.04288 23.5126 6.60435 23.1604 6.25215C22.8082 5.89995 22.3697 5.64643 21.8888 5.51697C20.1175 5.0376 13 5.0376 13 5.0376C13 5.0376 5.8825 5.0376 4.11125 5.51697C3.63028 5.64643 3.19175 5.89995 2.83955 6.25215C2.48735 6.60435 2.23384 7.04288 2.10438 7.52385C1.77364 9.33025 1.61315 11.1637 1.625 13.0001C1.61315 14.8365 1.77364 16.6699 2.10438 18.4763C2.23384 18.9573 2.48735 19.3958 2.83955 19.748C3.19175 20.1002 3.63028 20.3538 4.11125 20.4832C5.8825 20.9626 13 20.9626 13 20.9626C13 20.9626 20.1175 20.9626 21.8888 20.4832C22.3697 20.3538 22.8082 20.1002 23.1604 19.748C23.5126 19.3958 23.7662 18.9573 23.8956 18.4763C24.2264 16.6699 24.3869 14.8365 24.375 13.0001C24.3869 11.1637 24.2264 9.33025 23.8956 7.52385ZM10.725 16.4126V9.5876L16.6319 13.0001L10.725 16.4126Z" fill="white"/>
<g clip-path="url(#clip0_3017_7)">
<path fill-rule="evenodd" clip-rule="evenodd" d="M82.3624 16.7577C82.3624 16.7577 84.3028 18.6741 84.7828 19.5609C84.7921 19.5736 84.7994 19.5878 84.8044 19.6029C85 19.9305 85.048 20.1873 84.952 20.3769C84.79 20.6901 84.2416 20.8473 84.0556 20.8605H80.626C80.3872 20.8605 79.8904 20.7981 79.2856 20.3805C78.8236 20.0577 78.364 19.5261 77.9188 19.0065C77.254 18.2349 76.6792 17.5653 76.0972 17.5653C76.0237 17.5651 75.9507 17.5773 75.8812 17.6013C75.4408 17.7405 74.8816 18.3681 74.8816 20.0397C74.8816 20.5629 74.4688 20.8605 74.1796 20.8605H72.6088C72.0736 20.8605 69.2872 20.6733 66.8164 18.0681C63.7888 14.8785 61.0696 8.48005 61.0432 8.42365C60.874 8.00965 61.2292 7.78405 61.6132 7.78405H65.0764C65.5408 7.78405 65.692 8.06485 65.7976 8.31685C65.92 8.60605 66.3736 9.76285 67.1176 11.0624C68.3224 13.1768 69.0628 14.0373 69.6544 14.0373C69.7655 14.0376 69.8748 14.0086 69.9712 13.9533C70.744 13.5285 70.6 10.7684 70.564 10.1996C70.564 10.0892 70.5628 8.96725 70.1668 8.42485C69.8836 8.03605 69.4012 7.88485 69.1096 7.82965C69.1876 7.71685 69.3532 7.54405 69.5656 7.44205C70.0948 7.17805 71.0512 7.13965 72.0004 7.13965H72.5272C73.5568 7.15405 73.8232 7.22005 74.1976 7.31485C74.9512 7.49485 74.9656 7.98325 74.8996 9.64645C74.8804 10.1216 74.86 10.6568 74.86 11.2868C74.86 11.4212 74.854 11.5712 74.854 11.7236C74.8312 12.5768 74.8012 13.5381 75.4036 13.9329C75.4817 13.9815 75.5719 14.0073 75.664 14.0072C75.8728 14.0072 76.498 14.0072 78.1936 11.0972C78.9376 9.81205 79.5136 8.29645 79.5532 8.18245C79.5868 8.11885 79.6876 7.94005 79.81 7.86805C79.8971 7.82172 79.9946 7.79858 80.0932 7.80085H84.1672C84.6112 7.80085 84.9124 7.86805 84.9712 8.03605C85.0696 8.30845 84.952 9.14005 83.092 11.6552C82.7788 12.074 82.504 12.4365 82.2628 12.7533C80.5768 14.9661 80.5768 15.0777 82.3624 16.7577Z" fill="white"/>
</g>
<path d="M134.513 22.7469V13.8679H137.509L137.954 10.3915H134.513V8.17718C134.513 7.17402 134.793 6.48718 136.233 6.48718H138.057V3.38777C137.169 3.29264 136.277 3.24671 135.384 3.25018C132.737 3.25018 130.919 4.86652 130.919 7.83377V10.385H127.943V13.8614H130.925V22.7469H134.513Z" fill="white"/>
<defs>
<clipPath id="clip0_3017_7">
<rect x="61" y="2" width="24" height="24" fill="white"/>
</clipPath>
</defs>
</svg>
